<svg width="576" height="58" viewBox="0 0 576 58" fill="none" xmlns="http://www.w3.org/2000/svg">
<path d="M43.5625 0.875V22H51.9375V28.5H43.5625V57.875H35.5625V0.875H43.5625ZM27.625 6.125V12.5625H8.875V37.5C17.125 37.4062 23.9375 37.0312 31.5 35.6875L32.375 42.375C23.5625 43.875 15.8125 44.125 5.75 44.0625H0.9375V6.125H27.625ZM106 31.625V38H53.9375V31.625H106ZM100.938 50.375V56.75H60.5V41.125H68.5V50.375H100.938ZM99.6875 2.1875V17.875H68.375V21.9375H100.75V27.9375H60.4375V12.1875H91.6875V8.3125H60.3125V2.1875H99.6875ZM156.5 6.875V13.125H145C145.062 18.9688 149.188 24.7188 158.312 27.125L154.688 33.375C148.25 31.6875 143.75 28.0625 141.188 23.5C138.688 28.7188 134.125 32.8438 127.438 34.8125L123.625 28.5625C132.812 26.0312 137 19.5938 137.062 13.125H125.625V6.875H137.062V0.625H145.125V6.875H156.5ZM169.188 0.875V14.375H176.875V20.8125H169.188V35.1875H161.188V0.875H169.188ZM150.562 36.25C162.438 36.25 169.75 40.1875 169.75 47.0625C169.75 53.8125 162.438 57.6875 150.562 57.6875C138.438 57.6875 131.062 53.8125 131.062 47.0625C131.062 40.1875 138.438 36.25 150.562 36.25ZM150.562 42.375C143 42.375 139 43.8125 139.062 47.0625C139 50.125 143 51.6875 150.562 51.6875C157.938 51.6875 161.875 50.125 161.875 47.0625C161.875 43.8125 157.938 42.375 150.562 42.375ZM239.938 4.1875V9.3125C239.938 14.625 239.938 20.4375 238.5 28.375H246V34.8125H223.812V57.8125H215.812V34.8125H194.125V28.375H230.438C231.875 21.0312 232 15.4688 232 10.5625H200.062V4.1875H239.938ZM297.375 0.9375V33.6875H289.438V28.125H276.625V21.75H289.438V16.3125H277.188C273.656 25.3125 265.594 31.5 253.062 34.9375L249.938 28.625C263.031 25.1875 269.438 18.9375 270.562 11.125H253V4.75H279.25C279.25 6.59375 279.125 8.375 278.875 10.0625H289.438V0.9375H297.375ZM278.438 34.375C290 34.375 297.75 38.8125 297.812 45.875C297.75 53 290 57.5 278.438 57.5C266.75 57.5 258.938 53 259 45.875C258.938 38.8125 266.75 34.375 278.438 34.375ZM278.438 40.625C271.25 40.5625 266.938 42.375 266.938 45.875C266.938 49.375 271.25 51.1875 278.438 51.1875C285.5 51.1875 289.812 49.375 289.812 45.875C289.812 42.375 285.5 40.5625 278.438 40.625ZM349.625 0.875V23.125H358V29.6875H349.625V57.75H341.75V0.875H349.625ZM337.875 9.375V15.75H304.438V9.375H317.312V1.75H325.312V9.375H337.875ZM321.312 18.9375C329.625 18.9375 335.812 24.5625 335.812 32.5C335.812 40.4375 329.625 46.0625 321.312 46.0625C312.938 46.0625 306.75 40.4375 306.75 32.5C306.75 24.5625 312.938 18.9375 321.312 18.9375ZM321.312 25.375C317.312 25.4375 314.375 28.125 314.375 32.5C314.375 36.9375 317.312 39.5625 321.312 39.5C325.312 39.5625 328.188 36.9375 328.188 32.5C328.188 28.125 325.312 25.4375 321.312 25.375ZM408 0.875V57.875H400.062V27.875H390.875V21.375H400.062V0.875H408ZM387.688 5.625V26.9375H370V38.0625C377.844 38 384.5 37.7188 391.812 36.4375L392.438 42.9375C384 44.3125 376.25 44.625 366.75 44.625H362.062V20.625H379.938V12.0625H361.938V5.625H387.688ZM475 0.875V22.6875H483.062V29.25H475V57.625H467V0.875H475ZM459.812 6.6875C459.75 23.6875 453.125 38.4375 434 47.8125L429.5 41.6875C442.969 34.9375 450.188 25.875 451.688 13.1875H432.75V6.6875H459.812ZM533.25 0.875V57.75H525.188V0.875H533.25ZM516.188 6.8125C516.188 24.0625 510.125 38.375 489.812 48L485.625 41.625C500.312 34.6875 506.781 25.6875 508.062 13.0625H488.688V6.8125H516.188ZM575.5 37.75L544.5 51.4375V42.625L565.562 34.0625V33.6875L544.5 25.1875V16.375L575.5 30.125V37.75Z" fill="black"/>
</svg>
