<svg width="553" height="50" viewBox="0 0 553 50" fill="none" xmlns="http://www.w3.org/2000/svg">
<path d="M37.0146 0.0644531V18.2188H44.2119V23.8047H37.0146V49.0488H30.1396V0.0644531H37.0146ZM23.3184 4.57617V10.1084H7.20508V31.5391C14.2949 31.4585 20.1494 31.1362 26.6484 29.9814L27.4004 35.7285C19.8271 37.0176 13.167 37.2324 4.51953 37.1787H0.383789V4.57617H23.3184ZM90.6719 26.4902V31.9688H45.9307V26.4902H90.6719ZM86.3213 42.6035V48.082H51.5703V34.6543H58.4453V42.6035H86.3213ZM85.2471 1.19238V14.6738H58.3379V18.165H86.1602V23.3213H51.5166V9.78613H78.3721V6.45605H51.4092V1.19238H85.2471ZM124.188 11.1289C124.134 19.8838 127.894 28.7461 135.735 32.5059L131.6 37.9844C126.363 35.4062 122.845 30.5723 120.804 24.6641C118.682 31.002 114.896 36.1851 109.363 38.8975L105.12 33.3652C113.392 29.5518 117.312 20.2061 117.312 11.1289V3.82422H124.188V11.1289ZM144.759 0.0644531V18.917H151.956V24.7178H144.759V48.9414H137.884V0.0644531H144.759ZM172.796 9.73242C172.796 15.5869 176.395 21.5488 184.451 23.9658L180.96 29.3369C175.481 27.6182 171.614 24.1001 169.412 19.6689C167.183 24.4761 163.208 28.3433 157.488 30.25L153.943 24.8789C162.054 22.2471 165.813 15.9092 165.813 9.73242V9.03418H155.77V3.55566H182.625V9.03418H172.796V9.73242ZM194.656 0.118164V35.46H187.781V0.118164H194.656ZM195.945 42.6035V48.082H161.893V32.2373H168.821V42.6035H195.945ZM245.95 19.1318V24.5029H201.263V19.1318H245.95ZM240.633 11.0752V16.4463H206.849V1.03125H240.257V6.50977H213.67V11.0752H240.633ZM240.418 27.4033V40.1865H213.187V43.1943H241.707V48.5117H206.473V35.2988H233.65V32.5596H206.419V27.4033H240.418ZM301.004 9.94727V15.3721H267.005V0.655273H273.826V9.94727H301.004ZM306.16 18.2725V23.751H287.039V27.5645H300.789V40.2939H273.504V43.3555H302.293V48.6191H266.629V35.5137H293.968V32.7207H266.521V27.5645H280.325V23.751H261.419V18.2725H306.16ZM350.203 0.0644531V49.0488H343.382V23.2676H335.486V17.6816H343.382V0.0644531H350.203ZM332.747 4.14648V22.4619H317.547V32.0225C324.288 31.9688 330.008 31.7271 336.292 30.626L336.829 36.2119C329.578 37.3936 322.918 37.6621 314.754 37.6621H310.726V17.0371H326.087V9.67871H310.618V4.14648H332.747ZM401.282 37.6621V43.248H356.541V37.6621H375.394V28.6387H361.268V3.17969H368.143V10.7529H389.466V3.17969H396.287V28.6387H382.215V37.6621H401.282ZM368.143 23.1602H389.466V16.2314H368.143V23.1602ZM445.271 0.0644531V49.0488H438.45V23.2676H430.555V17.6816H438.45V0.0644531H445.271ZM427.815 4.14648V22.4619H412.615V32.0225C419.356 31.9688 425.076 31.7271 431.36 30.626L431.897 36.2119C424.646 37.3936 417.986 37.6621 409.822 37.6621H405.794V17.0371H421.155V9.67871H405.687V4.14648H427.815ZM502.85 0.0644531V18.8096H509.778V24.4492H502.85V48.834H495.975V0.0644531H502.85ZM489.798 5.05957C489.744 19.6689 484.051 32.3447 467.615 40.4014L463.748 35.1377C475.323 29.3369 481.526 21.5488 482.815 10.6455H466.541V5.05957H489.798ZM552.908 0.0644531V48.9414H545.979V0.0644531H552.908ZM538.245 5.16699C538.245 19.9912 533.035 32.291 515.579 40.5625L511.98 35.084C524.603 29.1221 530.162 21.3877 531.263 10.5381H514.612V5.16699H538.245Z" fill="black"/>
</svg>
